SplineFontDB: 3.2
FontName: Little-Conquest
FullName: Little Conquest Regular
FamilyName: Little Conquest
Weight: Book
Copyright: Copyright Bitty 2015
Version: 1.0
ItalicAngle: 0
UnderlinePosition: 77
UnderlineWidth: 51
Ascent: 819
Descent: 205
InvalidEm: 0
sfntRevision: 0x00010000
LayerCount: 2
Layer: 0 1 "Back" 1
Layer: 1 1 "Fore" 0
XUID: [1021 305 1684359000 30321]
StyleMap: 0x0040
FSType: 4
OS2Version: 2
OS2_WeightWidthSlopeOnly: 0
OS2_UseTypoMetrics: 0
CreationTime: 1564513877
ModificationTime: 1619334576
PfmFamily: 81
TTFWeight: 400
TTFWidth: 5
LineGap: 0
VLineGap: 0
Panose: 0 0 4 0 0 0 0 0 0 0
OS2TypoAscent: 640
OS2TypoAOffset: 0
OS2TypoDescent: -128
OS2TypoDOffset: 0
OS2TypoLinegap: 0
OS2WinAscent: 768
OS2WinAOffset: 0
OS2WinDescent: 128
OS2WinDOffset: 0
HheadAscent: 768
HheadAOffset: 0
HheadDescent: -128
HheadDOffset: 0
OS2SubXSize: 512
OS2SubYSize: 512
OS2SubXOff: 0
OS2SubYOff: -64
OS2SupXSize: 512
OS2SupYSize: 512
OS2SupXOff: 0
OS2SupYOff: 512
OS2StrikeYSize: 51
OS2StrikeYPos: 204
OS2CapHeight: 640
OS2XHeight: 512
OS2Vendor: 'FSTR'
OS2CodePages: 00000001.00000000
OS2UnicodeRanges: 00000001.00000000.00000000.00000000
DEI: 91125
ShortTable: maxp 16
  1
  0
  74
  20
  5
  0
  0
  2
  0
  0
  0
  0
  0
  0
  0
  0
EndShort
LangName: 1033 "" "" "Regular" "Little Conquest" "" "Version 1.0" "" "FontStruct is a trademark of FontStruct.com" "https://fontstruct.com" "Bitty" "+IBwA-Little Conquest+IB0A was built with FontStruct+AAoA" "https://fontstruct.com/fontstructions/show/1152950/little_conquest" "https://fontstruct.com/fontstructors/show/1048061/bitty" "FontStruct Non-Commercial License" "" "" "" "" "" "Five big quacking zephyrs jolt my wax bed"
Encoding: UnicodeBmp
UnicodeInterp: none
NameList: AGL For New Fonts
DisplaySize: -48
AntiAlias: 1
FitToEm: 0
WinInfo: 0 38 14
BeginChars: 65539 75

StartChar: .notdef
Encoding: 65536 -1 0
Width: 620
Flags: W
LayerCount: 2
Fore
SplineSet
423 50 m 1,0,-1
 246 300 l 1,1,-1
 69 50 l 1,2,-1
 423 50 l 1,0,-1
50 69 m 1,3,-1
 226 320 l 1,4,-1
 50 570 l 1,5,-1
 50 69 l 1,6,-1
 50 69 l 1,3,-1
442 69 m 1,7,-1
 442 570 l 1,8,-1
 265 320 l 1,9,-1
 442 69 l 1,10,-1
 442 69 l 1,7,-1
246 339 m 1,11,-1
 423 590 l 1,12,-1
 69 590 l 1,13,-1
 246 339 l 1,14,-1
 246 339 l 1,11,-1
0 0 m 1,15,-1
 0 640 l 1,16,-1
 492 640 l 1,17,-1
 492 0 l 1,18,-1
 0 0 l 1,15,-1
EndSplineSet
EndChar

StartChar: exclam
Encoding: 33 33 4
Width: 256
Flags: W
LayerCount: 2
Fore
SplineSet
0 0 m 1,0,-1
 0 128 l 1,1,-1
 128 128 l 1,2,-1
 128 0 l 1,3,-1
 0 0 l 1,0,-1
0 256 m 1,4,-1
 0 640 l 1,5,-1
 128 640 l 1,6,-1
 128 256 l 1,7,-1
 0 256 l 1,4,-1
EndSplineSet
EndChar

StartChar: percent
Encoding: 37 37 5
Width: 512
Flags: W
LayerCount: 2
Fore
SplineSet
256 0 m 1,0,-1
 256 128 l 1,1,-1
 384 128 l 1,2,-1
 384 0 l 1,3,-1
 256 0 l 1,0,-1
0 0 m 1,4,-1
 0 256 l 1,5,-1
 128 256 l 1,6,-1
 128 0 l 1,7,-1
 0 0 l 1,4,-1
128 256 m 1,8,-1
 128 384 l 1,9,-1
 256 384 l 1,10,-1
 256 256 l 1,11,-1
 128 256 l 1,8,-1
0 512 m 1,12,-1
 0 640 l 1,13,-1
 128 640 l 1,14,-1
 128 512 l 1,15,-1
 0 512 l 1,12,-1
256 384 m 1,16,-1
 256 640 l 1,17,-1
 384 640 l 1,18,-1
 384 384 l 1,19,-1
 256 384 l 1,16,-1
EndSplineSet
EndChar

StartChar: quotesingle
Encoding: 39 39 6
Width: 256
Flags: W
LayerCount: 2
Fore
SplineSet
0 512 m 1,0,-1
 0 768 l 1,1,-1
 128 768 l 1,2,-1
 128 512 l 1,3,-1
 0 512 l 1,0,-1
EndSplineSet
EndChar

StartChar: comma
Encoding: 44 44 7
Width: 256
Flags: W
LayerCount: 2
Fore
SplineSet
0 -128 m 1,0,-1
 0 128 l 1,1,-1
 128 128 l 1,2,-1
 128 -128 l 1,3,-1
 0 -128 l 1,0,-1
EndSplineSet
EndChar

StartChar: period
Encoding: 46 46 8
Width: 256
Flags: W
LayerCount: 2
Fore
SplineSet
0 0 m 1,0,-1
 0 128 l 1,1,-1
 128 128 l 1,2,-1
 128 0 l 1,3,-1
 0 0 l 1,0,-1
EndSplineSet
EndChar

StartChar: zero
Encoding: 48 48 9
Width: 512
Flags: W
LayerCount: 2
Fore
SplineSet
256 128 m 1,0,-1
 256 512 l 1,1,-1
 128 512 l 1,2,-1
 128 128 l 1,3,-1
 256 128 l 1,0,-1
0 0 m 1,4,-1
 0 640 l 1,5,-1
 384 640 l 1,6,-1
 384 0 l 1,7,-1
 0 0 l 1,4,-1
EndSplineSet
EndChar

StartChar: one
Encoding: 49 49 10
Width: 256
Flags: W
LayerCount: 2
Fore
SplineSet
0 0 m 5,0,-1
 0 640 l 5,1,-1
 128 640 l 5,2,-1
 128 0 l 5,3,-1
 0 0 l 5,0,-1
EndSplineSet
EndChar

StartChar: two
Encoding: 50 50 11
Width: 512
Flags: W
LayerCount: 2
Fore
SplineSet
0 0 m 1,0,-1
 0 256 l 1,1,-1
 128 256 l 1,2,-1
 128 128 l 1,3,-1
 384 128 l 1,4,-1
 384 0 l 1,5,-1
 0 0 l 1,0,-1
128 256 m 1,6,-1
 128 384 l 1,7,-1
 256 384 l 1,8,-1
 256 256 l 1,9,-1
 128 256 l 1,6,-1
256 384 m 1,10,-1
 256 512 l 1,11,-1
 384 512 l 1,12,-1
 384 384 l 1,13,-1
 256 384 l 1,10,-1
0 512 m 1,14,-1
 0 640 l 1,15,-1
 256 640 l 1,16,-1
 256 512 l 1,17,-1
 0 512 l 1,14,-1
EndSplineSet
EndChar

StartChar: three
Encoding: 51 51 12
Width: 512
Flags: W
LayerCount: 2
Fore
SplineSet
0 0 m 1,0,-1
 0 128 l 1,1,-1
 256 128 l 1,2,-1
 256 0 l 1,3,-1
 0 0 l 1,0,-1
256 128 m 1,4,-1
 256 256 l 1,5,-1
 384 256 l 1,6,-1
 384 128 l 1,7,-1
 256 128 l 1,4,-1
0 256 m 1,8,-1
 0 384 l 1,9,-1
 256 384 l 1,10,-1
 256 256 l 1,11,-1
 0 256 l 1,8,-1
256 384 m 1,12,-1
 256 512 l 1,13,-1
 384 512 l 1,14,-1
 384 384 l 1,15,-1
 256 384 l 1,12,-1
0 512 m 1,16,-1
 0 640 l 1,17,-1
 256 640 l 1,18,-1
 256 512 l 1,19,-1
 0 512 l 1,16,-1
EndSplineSet
EndChar

StartChar: four
Encoding: 52 52 13
Width: 512
Flags: W
LayerCount: 2
Fore
SplineSet
256 0 m 1,0,-1
 256 256 l 1,1,-1
 0 256 l 1,2,-1
 0 640 l 1,3,-1
 128 640 l 1,4,-1
 128 384 l 1,5,-1
 256 384 l 1,6,-1
 256 640 l 1,7,-1
 384 640 l 1,8,-1
 384 0 l 1,9,-1
 256 0 l 1,0,-1
EndSplineSet
EndChar

StartChar: five
Encoding: 53 53 14
Width: 512
Flags: W
LayerCount: 2
Fore
SplineSet
0 0 m 1,0,-1
 0 128 l 1,1,-1
 256 128 l 1,2,-1
 256 0 l 1,3,-1
 0 0 l 1,0,-1
256 128 m 1,4,-1
 256 256 l 1,5,-1
 384 256 l 1,6,-1
 384 128 l 1,7,-1
 256 128 l 1,4,-1
0 256 m 1,8,-1
 0 640 l 1,9,-1
 384 640 l 1,10,-1
 384 512 l 1,11,-1
 128 512 l 1,12,-1
 128 384 l 1,13,-1
 256 384 l 1,14,-1
 256 256 l 1,15,-1
 0 256 l 1,8,-1
EndSplineSet
EndChar

StartChar: six
Encoding: 54 54 15
Width: 512
Flags: W
LayerCount: 2
Fore
SplineSet
128 0 m 1,0,-1
 128 128 l 1,1,-1
 256 128 l 1,2,-1
 256 256 l 1,3,-1
 384 256 l 1,4,-1
 384 0 l 1,5,-1
 128 0 l 1,0,-1
0 128 m 1,6,-1
 0 512 l 1,7,-1
 128 512 l 1,8,-1
 128 384 l 1,9,-1
 256 384 l 1,10,-1
 256 256 l 1,11,-1
 128 256 l 1,12,-1
 128 128 l 1,13,-1
 0 128 l 1,6,-1
128 512 m 1,14,-1
 128 640 l 1,15,-1
 384 640 l 1,16,-1
 384 512 l 1,17,-1
 128 512 l 1,14,-1
EndSplineSet
EndChar

StartChar: seven
Encoding: 55 55 16
Width: 512
Flags: W
LayerCount: 2
Fore
SplineSet
128 0 m 1,0,-1
 128 384 l 1,1,-1
 256 384 l 1,2,-1
 256 0 l 1,3,-1
 128 0 l 1,0,-1
256 384 m 1,4,-1
 256 512 l 1,5,-1
 0 512 l 1,6,-1
 0 640 l 1,7,-1
 384 640 l 1,8,-1
 384 384 l 1,9,-1
 256 384 l 1,4,-1
EndSplineSet
EndChar

StartChar: eight
Encoding: 56 56 17
Width: 512
Flags: W
LayerCount: 2
Fore
SplineSet
256 128 m 1,0,-1
 256 256 l 1,1,-1
 128 256 l 1,2,-1
 128 128 l 1,3,-1
 256 128 l 1,0,-1
256 384 m 1,4,-1
 256 512 l 1,5,-1
 128 512 l 1,6,-1
 128 384 l 1,7,-1
 256 384 l 1,4,-1
0 0 m 1,8,-1
 0 640 l 1,9,-1
 384 640 l 1,10,-1
 384 0 l 1,11,-1
 0 0 l 1,8,-1
EndSplineSet
EndChar

StartChar: nine
Encoding: 57 57 18
Width: 512
Flags: W
LayerCount: 2
Fore
SplineSet
256 384 m 1,0,-1
 256 512 l 1,1,-1
 128 512 l 1,2,-1
 128 384 l 1,3,-1
 256 384 l 1,0,-1
256 0 m 1,4,-1
 256 256 l 1,5,-1
 0 256 l 1,6,-1
 0 640 l 1,7,-1
 384 640 l 1,8,-1
 384 0 l 1,9,-1
 256 0 l 1,4,-1
EndSplineSet
EndChar

StartChar: colon
Encoding: 58 58 19
Width: 256
Flags: W
LayerCount: 2
Fore
SplineSet
0 0 m 1,0,-1
 0 128 l 1,1,-1
 128 128 l 1,2,-1
 128 0 l 1,3,-1
 0 0 l 1,0,-1
0 256 m 1,4,-1
 0 384 l 1,5,-1
 128 384 l 1,6,-1
 128 256 l 1,7,-1
 0 256 l 1,4,-1
EndSplineSet
EndChar

StartChar: semicolon
Encoding: 59 59 20
Width: 256
Flags: W
LayerCount: 2
Fore
SplineSet
0 -128 m 1,0,-1
 0 128 l 1,1,-1
 128 128 l 1,2,-1
 128 -128 l 1,3,-1
 0 -128 l 1,0,-1
0 256 m 1,4,-1
 0 384 l 1,5,-1
 128 384 l 1,6,-1
 128 256 l 1,7,-1
 0 256 l 1,4,-1
EndSplineSet
EndChar

StartChar: question
Encoding: 63 63 21
Width: 512
Flags: W
LayerCount: 2
Fore
SplineSet
128 0 m 1,0,-1
 128 128 l 1,1,-1
 256 128 l 1,2,-1
 256 0 l 1,3,-1
 128 0 l 1,0,-1
128 256 m 1,4,-1
 128 384 l 1,5,-1
 256 384 l 1,6,-1
 256 256 l 1,7,-1
 128 256 l 1,4,-1
256 384 m 1,8,-1
 256 512 l 1,9,-1
 384 512 l 1,10,-1
 384 384 l 1,11,-1
 256 384 l 1,8,-1
0 512 m 1,12,-1
 0 640 l 1,13,-1
 256 640 l 1,14,-1
 256 512 l 1,15,-1
 0 512 l 1,12,-1
EndSplineSet
EndChar

StartChar: A
Encoding: 65 65 22
Width: 512
Flags: W
LayerCount: 2
Fore
SplineSet
0 0 m 1,0,-1
 0 512 l 1,1,-1
 128 512 l 1,2,-1
 128 384 l 1,3,-1
 256 384 l 1,4,-1
 256 512 l 1,5,-1
 384 512 l 1,6,-1
 384 0 l 1,7,-1
 256 0 l 1,8,-1
 256 256 l 1,9,-1
 128 256 l 1,10,-1
 128 0 l 1,11,-1
 0 0 l 1,0,-1
128 512 m 1,12,-1
 128 640 l 1,13,-1
 256 640 l 1,14,-1
 256 512 l 1,15,-1
 128 512 l 1,12,-1
EndSplineSet
EndChar

StartChar: B
Encoding: 66 66 23
Width: 512
Flags: W
LayerCount: 2
Fore
SplineSet
256 128 m 1,0,-1
 256 256 l 1,1,-1
 384 256 l 1,2,-1
 384 128 l 1,3,-1
 256 128 l 1,0,-1
256 384 m 1,4,-1
 256 512 l 1,5,-1
 384 512 l 1,6,-1
 384 384 l 1,7,-1
 256 384 l 1,4,-1
0 0 m 1,8,-1
 0 640 l 1,9,-1
 256 640 l 1,10,-1
 256 512 l 1,11,-1
 128 512 l 1,12,-1
 128 384 l 1,13,-1
 256 384 l 1,14,-1
 256 256 l 1,15,-1
 128 256 l 1,16,-1
 128 128 l 1,17,-1
 256 128 l 1,18,-1
 256 0 l 1,19,-1
 0 0 l 1,8,-1
EndSplineSet
EndChar

StartChar: C
Encoding: 67 67 24
Width: 512
Flags: W
LayerCount: 2
Fore
SplineSet
128 0 m 1,0,-1
 128 128 l 1,1,-1
 384 128 l 1,2,-1
 384 0 l 1,3,-1
 128 0 l 1,0,-1
0 128 m 1,4,-1
 0 512 l 1,5,-1
 128 512 l 1,6,-1
 128 128 l 1,7,-1
 0 128 l 1,4,-1
128 512 m 1,8,-1
 128 640 l 1,9,-1
 384 640 l 1,10,-1
 384 512 l 1,11,-1
 128 512 l 1,8,-1
EndSplineSet
EndChar

StartChar: D
Encoding: 68 68 25
Width: 512
Flags: W
LayerCount: 2
Fore
SplineSet
256 128 m 1,0,-1
 256 512 l 1,1,-1
 384 512 l 1,2,-1
 384 128 l 1,3,-1
 256 128 l 1,0,-1
0 0 m 1,4,-1
 0 640 l 1,5,-1
 256 640 l 1,6,-1
 256 512 l 1,7,-1
 128 512 l 1,8,-1
 128 128 l 1,9,-1
 256 128 l 1,10,-1
 256 0 l 1,11,-1
 0 0 l 1,4,-1
EndSplineSet
EndChar

StartChar: E
Encoding: 69 69 26
Width: 512
Flags: W
LayerCount: 2
Fore
SplineSet
0 0 m 1,0,-1
 0 640 l 1,1,-1
 384 640 l 1,2,-1
 384 512 l 1,3,-1
 128 512 l 1,4,-1
 128 384 l 1,5,-1
 256 384 l 1,6,-1
 256 256 l 1,7,-1
 128 256 l 1,8,-1
 128 128 l 1,9,-1
 384 128 l 1,10,-1
 384 0 l 1,11,-1
 0 0 l 1,0,-1
EndSplineSet
EndChar

StartChar: F
Encoding: 70 70 27
Width: 512
Flags: W
LayerCount: 2
Fore
SplineSet
0 0 m 1,0,-1
 0 640 l 1,1,-1
 384 640 l 1,2,-1
 384 512 l 1,3,-1
 128 512 l 1,4,-1
 128 384 l 1,5,-1
 256 384 l 1,6,-1
 256 256 l 1,7,-1
 128 256 l 1,8,-1
 128 0 l 1,9,-1
 0 0 l 1,0,-1
EndSplineSet
EndChar

StartChar: G
Encoding: 71 71 28
Width: 512
Flags: W
LayerCount: 2
Fore
SplineSet
128 0 m 1,0,-1
 128 128 l 1,1,-1
 256 128 l 1,2,-1
 256 384 l 1,3,-1
 384 384 l 1,4,-1
 384 0 l 1,5,-1
 128 0 l 1,0,-1
0 128 m 1,6,-1
 0 512 l 1,7,-1
 128 512 l 1,8,-1
 128 128 l 1,9,-1
 0 128 l 1,6,-1
128 512 m 1,10,-1
 128 640 l 1,11,-1
 384 640 l 1,12,-1
 384 512 l 1,13,-1
 128 512 l 1,10,-1
EndSplineSet
EndChar

StartChar: H
Encoding: 72 72 29
Width: 512
Flags: W
LayerCount: 2
Fore
SplineSet
0 0 m 1,0,-1
 0 640 l 1,1,-1
 128 640 l 1,2,-1
 128 384 l 1,3,-1
 256 384 l 1,4,-1
 256 640 l 1,5,-1
 384 640 l 1,6,-1
 384 0 l 1,7,-1
 256 0 l 1,8,-1
 256 256 l 1,9,-1
 128 256 l 1,10,-1
 128 0 l 1,11,-1
 0 0 l 1,0,-1
EndSplineSet
EndChar

StartChar: I
Encoding: 73 73 30
Width: 512
Flags: W
LayerCount: 2
Fore
SplineSet
0 0 m 1,0,-1
 0 128 l 1,1,-1
 128 128 l 1,2,-1
 128 512 l 1,3,-1
 0 512 l 1,4,-1
 0 640 l 1,5,-1
 384 640 l 1,6,-1
 384 512 l 1,7,-1
 256 512 l 1,8,-1
 256 128 l 1,9,-1
 384 128 l 1,10,-1
 384 0 l 1,11,-1
 0 0 l 1,0,-1
EndSplineSet
EndChar

StartChar: J
Encoding: 74 74 31
Width: 512
Flags: W
LayerCount: 2
Fore
SplineSet
0 0 m 1,0,-1
 0 128 l 1,1,-1
 256 128 l 1,2,-1
 256 0 l 1,3,-1
 0 0 l 1,0,-1
256 128 m 1,4,-1
 256 512 l 1,5,-1
 0 512 l 1,6,-1
 0 640 l 1,7,-1
 384 640 l 1,8,-1
 384 128 l 1,9,-1
 256 128 l 1,4,-1
EndSplineSet
EndChar

StartChar: K
Encoding: 75 75 32
Width: 512
Flags: W
LayerCount: 2
Fore
SplineSet
256 0 m 1,0,-1
 256 256 l 1,1,-1
 384 256 l 1,2,-1
 384 0 l 1,3,-1
 256 0 l 1,0,-1
0 0 m 1,4,-1
 0 640 l 1,5,-1
 128 640 l 1,6,-1
 128 384 l 1,7,-1
 256 384 l 1,8,-1
 256 256 l 1,9,-1
 128 256 l 1,10,-1
 128 0 l 1,11,-1
 0 0 l 1,4,-1
256 384 m 1,12,-1
 256 640 l 1,13,-1
 384 640 l 1,14,-1
 384 384 l 1,15,-1
 256 384 l 1,12,-1
EndSplineSet
EndChar

StartChar: L
Encoding: 76 76 33
Width: 512
Flags: W
LayerCount: 2
Fore
SplineSet
0 0 m 1,0,-1
 0 640 l 1,1,-1
 128 640 l 1,2,-1
 128 128 l 1,3,-1
 384 128 l 1,4,-1
 384 0 l 1,5,-1
 0 0 l 1,0,-1
EndSplineSet
EndChar

StartChar: M
Encoding: 77 77 34
Width: 768
Flags: W
LayerCount: 2
Fore
SplineSet
0 0 m 1,0,-1
 0 512 l 1,1,-1
 128 512 l 1,2,-1
 128 0 l 1,3,-1
 0 0 l 1,0,-1
256 256 m 1,4,-1
 256 512 l 1,5,-1
 384 512 l 1,6,-1
 384 256 l 1,7,-1
 256 256 l 1,4,-1
512 0 m 1,8,-1
 512 512 l 1,9,-1
 640 512 l 1,10,-1
 640 0 l 1,11,-1
 512 0 l 1,8,-1
128 512 m 1,12,-1
 128 640 l 1,13,-1
 256 640 l 1,14,-1
 256 512 l 1,15,-1
 128 512 l 1,12,-1
384 512 m 1,16,-1
 384 640 l 1,17,-1
 512 640 l 1,18,-1
 512 512 l 1,19,-1
 384 512 l 1,16,-1
EndSplineSet
EndChar

StartChar: N
Encoding: 78 78 35
Width: 640
Flags: W
LayerCount: 2
Fore
SplineSet
0 0 m 1,0,-1
 0 640 l 1,1,-1
 128 640 l 1,2,-1
 128 512 l 1,3,-1
 256 512 l 1,4,-1
 256 384 l 1,5,-1
 128 384 l 1,6,-1
 128 0 l 1,7,-1
 0 0 l 1,0,-1
384 0 m 1,8,-1
 384 256 l 1,9,-1
 256 256 l 1,10,-1
 256 384 l 1,11,-1
 384 384 l 1,12,-1
 384 640 l 1,13,-1
 512 640 l 1,14,-1
 512 0 l 1,15,-1
 384 0 l 1,8,-1
EndSplineSet
EndChar

StartChar: O
Encoding: 79 79 36
Width: 512
Flags: W
LayerCount: 2
Fore
SplineSet
256 128 m 1,0,-1
 256 512 l 1,1,-1
 128 512 l 1,2,-1
 128 128 l 1,3,-1
 256 128 l 1,0,-1
0 0 m 1,4,-1
 0 640 l 1,5,-1
 384 640 l 1,6,-1
 384 0 l 1,7,-1
 0 0 l 1,4,-1
EndSplineSet
EndChar

StartChar: P
Encoding: 80 80 37
Width: 512
Flags: W
LayerCount: 2
Fore
SplineSet
256 384 m 1,0,-1
 256 512 l 1,1,-1
 384 512 l 1,2,-1
 384 384 l 1,3,-1
 256 384 l 1,0,-1
0 0 m 1,4,-1
 0 640 l 1,5,-1
 256 640 l 1,6,-1
 256 512 l 1,7,-1
 128 512 l 1,8,-1
 128 384 l 1,9,-1
 256 384 l 1,10,-1
 256 256 l 1,11,-1
 128 256 l 1,12,-1
 128 0 l 1,13,-1
 0 0 l 1,4,-1
EndSplineSet
EndChar

StartChar: Q
Encoding: 81 81 38
Width: 640
Flags: W
LayerCount: 2
Fore
SplineSet
256 128 m 1,0,-1
 256 512 l 1,1,-1
 128 512 l 1,2,-1
 128 128 l 1,3,-1
 256 128 l 1,0,-1
0 0 m 1,4,-1
 0 640 l 1,5,-1
 384 640 l 1,6,-1
 384 128 l 1,7,-1
 512 128 l 1,8,-1
 512 0 l 1,9,-1
 0 0 l 1,4,-1
EndSplineSet
EndChar

StartChar: R
Encoding: 82 82 39
Width: 512
Flags: W
LayerCount: 2
Fore
SplineSet
256 0 m 1,0,-1
 256 256 l 1,1,-1
 384 256 l 1,2,-1
 384 0 l 1,3,-1
 256 0 l 1,0,-1
256 384 m 1,4,-1
 256 512 l 1,5,-1
 384 512 l 1,6,-1
 384 384 l 1,7,-1
 256 384 l 1,4,-1
0 0 m 1,8,-1
 0 640 l 1,9,-1
 256 640 l 1,10,-1
 256 512 l 1,11,-1
 128 512 l 1,12,-1
 128 384 l 1,13,-1
 256 384 l 1,14,-1
 256 256 l 1,15,-1
 128 256 l 1,16,-1
 128 0 l 1,17,-1
 0 0 l 1,8,-1
EndSplineSet
EndChar

StartChar: S
Encoding: 83 83 40
Width: 512
Flags: W
LayerCount: 2
Fore
SplineSet
0 0 m 5,0,-1
 0 128 l 5,1,-1
 256 128 l 5,2,-1
 256 0 l 5,3,-1
 0 0 l 5,0,-1
256 128 m 5,4,-1
 256 256 l 5,5,-1
 384 256 l 5,6,-1
 384 128 l 5,7,-1
 256 128 l 5,4,-1
128 256 m 5,8,-1
 128 384 l 5,9,-1
 256 384 l 5,10,-1
 256 256 l 5,11,-1
 128 256 l 5,8,-1
0 384 m 5,12,-1
 0 512 l 5,13,-1
 128 512 l 5,14,-1
 128 384 l 5,15,-1
 0 384 l 5,12,-1
128 512 m 5,16,-1
 128 640 l 5,17,-1
 384 640 l 5,18,-1
 384 512 l 5,19,-1
 128 512 l 5,16,-1
EndSplineSet
EndChar

StartChar: T
Encoding: 84 84 41
Width: 512
Flags: W
LayerCount: 2
Fore
SplineSet
128 0 m 1,0,-1
 128 512 l 1,1,-1
 0 512 l 1,2,-1
 0 640 l 1,3,-1
 384 640 l 1,4,-1
 384 512 l 1,5,-1
 256 512 l 1,6,-1
 256 0 l 1,7,-1
 128 0 l 1,0,-1
EndSplineSet
EndChar

StartChar: U
Encoding: 85 85 42
Width: 512
Flags: W
LayerCount: 2
Fore
SplineSet
0 0 m 1,0,-1
 0 640 l 1,1,-1
 128 640 l 1,2,-1
 128 128 l 1,3,-1
 256 128 l 1,4,-1
 256 640 l 1,5,-1
 384 640 l 1,6,-1
 384 0 l 1,7,-1
 0 0 l 1,0,-1
EndSplineSet
EndChar

StartChar: V
Encoding: 86 86 43
Width: 512
Flags: W
LayerCount: 2
Fore
SplineSet
128 0 m 1,0,-1
 128 128 l 1,1,-1
 256 128 l 1,2,-1
 256 0 l 1,3,-1
 128 0 l 1,0,-1
0 128 m 1,4,-1
 0 640 l 1,5,-1
 128 640 l 1,6,-1
 128 128 l 1,7,-1
 0 128 l 1,4,-1
256 128 m 1,8,-1
 256 640 l 1,9,-1
 384 640 l 1,10,-1
 384 128 l 1,11,-1
 256 128 l 1,8,-1
EndSplineSet
EndChar

StartChar: W
Encoding: 87 87 44
Width: 768
Flags: W
LayerCount: 2
Fore
SplineSet
128 0 m 1,0,-1
 128 128 l 1,1,-1
 256 128 l 1,2,-1
 256 0 l 1,3,-1
 128 0 l 1,0,-1
384 0 m 1,4,-1
 384 128 l 1,5,-1
 512 128 l 1,6,-1
 512 0 l 1,7,-1
 384 0 l 1,4,-1
256 128 m 1,8,-1
 256 384 l 1,9,-1
 384 384 l 1,10,-1
 384 128 l 1,11,-1
 256 128 l 1,8,-1
0 128 m 1,12,-1
 0 640 l 1,13,-1
 128 640 l 1,14,-1
 128 128 l 1,15,-1
 0 128 l 1,12,-1
512 128 m 1,16,-1
 512 640 l 1,17,-1
 640 640 l 1,18,-1
 640 128 l 1,19,-1
 512 128 l 1,16,-1
EndSplineSet
EndChar

StartChar: X
Encoding: 88 88 45
Width: 512
Flags: W
LayerCount: 2
Fore
SplineSet
0 0 m 1,0,-1
 0 256 l 1,1,-1
 128 256 l 1,2,-1
 128 0 l 1,3,-1
 0 0 l 1,0,-1
256 0 m 1,4,-1
 256 256 l 1,5,-1
 384 256 l 1,6,-1
 384 0 l 1,7,-1
 256 0 l 1,4,-1
128 256 m 1,8,-1
 128 384 l 1,9,-1
 256 384 l 1,10,-1
 256 256 l 1,11,-1
 128 256 l 1,8,-1
0 384 m 1,12,-1
 0 640 l 1,13,-1
 128 640 l 1,14,-1
 128 384 l 1,15,-1
 0 384 l 1,12,-1
256 384 m 1,16,-1
 256 640 l 1,17,-1
 384 640 l 1,18,-1
 384 384 l 1,19,-1
 256 384 l 1,16,-1
EndSplineSet
EndChar

StartChar: Y
Encoding: 89 89 46
Width: 512
Flags: W
LayerCount: 2
Fore
SplineSet
128 0 m 1,0,-1
 128 384 l 1,1,-1
 256 384 l 1,2,-1
 256 0 l 1,3,-1
 128 0 l 1,0,-1
0 384 m 1,4,-1
 0 640 l 1,5,-1
 128 640 l 1,6,-1
 128 384 l 1,7,-1
 0 384 l 1,4,-1
256 384 m 1,8,-1
 256 640 l 1,9,-1
 384 640 l 1,10,-1
 384 384 l 1,11,-1
 256 384 l 1,8,-1
EndSplineSet
EndChar

StartChar: Z
Encoding: 90 90 47
Width: 512
Flags: W
LayerCount: 2
Fore
SplineSet
0 0 m 1,0,-1
 0 256 l 1,1,-1
 128 256 l 1,2,-1
 128 128 l 1,3,-1
 384 128 l 1,4,-1
 384 0 l 1,5,-1
 0 0 l 1,0,-1
128 256 m 1,6,-1
 128 384 l 1,7,-1
 256 384 l 1,8,-1
 256 256 l 1,9,-1
 128 256 l 1,6,-1
256 384 m 1,10,-1
 256 512 l 1,11,-1
 0 512 l 1,12,-1
 0 640 l 1,13,-1
 384 640 l 1,14,-1
 384 384 l 1,15,-1
 256 384 l 1,10,-1
EndSplineSet
EndChar

StartChar: a
Encoding: 97 97 48
Width: 512
Flags: W
LayerCount: 2
Fore
SplineSet
0 0 m 1,0,-1
 0 256 l 1,1,-1
 128 256 l 1,2,-1
 128 128 l 1,3,-1
 256 128 l 1,4,-1
 256 256 l 1,5,-1
 128 256 l 1,6,-1
 128 384 l 1,7,-1
 0 384 l 1,8,-1
 0 512 l 1,9,-1
 256 512 l 1,10,-1
 256 384 l 1,11,-1
 384 384 l 1,12,-1
 384 0 l 1,13,-1
 0 0 l 1,0,-1
EndSplineSet
EndChar

StartChar: b
Encoding: 98 98 49
Width: 512
Flags: W
LayerCount: 2
Fore
SplineSet
256 128 m 1,0,-1
 256 384 l 1,1,-1
 384 384 l 1,2,-1
 384 128 l 1,3,-1
 256 128 l 1,0,-1
0 0 m 1,4,-1
 0 640 l 1,5,-1
 128 640 l 1,6,-1
 128 512 l 1,7,-1
 256 512 l 1,8,-1
 256 384 l 1,9,-1
 128 384 l 1,10,-1
 128 128 l 1,11,-1
 256 128 l 1,12,-1
 256 0 l 1,13,-1
 0 0 l 1,4,-1
EndSplineSet
EndChar

StartChar: c
Encoding: 99 99 50
Width: 512
Flags: W
LayerCount: 2
Fore
SplineSet
128 0 m 1,0,-1
 128 128 l 1,1,-1
 384 128 l 1,2,-1
 384 0 l 1,3,-1
 128 0 l 1,0,-1
0 128 m 1,4,-1
 0 384 l 1,5,-1
 128 384 l 1,6,-1
 128 128 l 1,7,-1
 0 128 l 1,4,-1
128 384 m 1,8,-1
 128 512 l 1,9,-1
 384 512 l 1,10,-1
 384 384 l 1,11,-1
 128 384 l 1,8,-1
EndSplineSet
EndChar

StartChar: d
Encoding: 100 100 51
Width: 512
Flags: W
LayerCount: 2
Fore
SplineSet
0 128 m 1,0,-1
 0 384 l 1,1,-1
 128 384 l 1,2,-1
 128 128 l 1,3,-1
 0 128 l 1,0,-1
128 0 m 1,4,-1
 128 128 l 1,5,-1
 256 128 l 1,6,-1
 256 384 l 1,7,-1
 128 384 l 1,8,-1
 128 512 l 1,9,-1
 256 512 l 1,10,-1
 256 640 l 1,11,-1
 384 640 l 1,12,-1
 384 0 l 1,13,-1
 128 0 l 1,4,-1
EndSplineSet
EndChar

StartChar: e
Encoding: 101 101 52
Width: 512
Flags: W
LayerCount: 2
Fore
SplineSet
128 0 m 1,0,-1
 128 128 l 1,1,-1
 0 128 l 1,2,-1
 0 384 l 1,3,-1
 128 384 l 1,4,-1
 128 256 l 1,5,-1
 256 256 l 1,6,-1
 256 128 l 1,7,-1
 384 128 l 1,8,-1
 384 0 l 1,9,-1
 128 0 l 1,0,-1
256 256 m 1,10,-1
 256 384 l 1,11,-1
 128 384 l 1,12,-1
 128 512 l 1,13,-1
 384 512 l 1,14,-1
 384 256 l 1,15,-1
 256 256 l 1,10,-1
EndSplineSet
EndChar

StartChar: f
Encoding: 102 102 53
Width: 384
Flags: W
LayerCount: 2
Fore
SplineSet
0 0 m 1,0,-1
 0 512 l 1,1,-1
 128 512 l 1,2,-1
 128 384 l 1,3,-1
 256 384 l 1,4,-1
 256 256 l 1,5,-1
 128 256 l 1,6,-1
 128 0 l 1,7,-1
 0 0 l 1,0,-1
128 512 m 1,8,-1
 128 640 l 1,9,-1
 256 640 l 1,10,-1
 256 512 l 1,11,-1
 128 512 l 1,8,-1
EndSplineSet
EndChar

StartChar: g
Encoding: 103 103 54
Width: 512
Flags: W
LayerCount: 2
Fore
SplineSet
0 -128 m 1,0,-1
 0 0 l 1,1,-1
 256 0 l 1,2,-1
 256 -128 l 1,3,-1
 0 -128 l 1,0,-1
0 256 m 1,4,-1
 0 384 l 1,5,-1
 128 384 l 1,6,-1
 128 256 l 1,7,-1
 0 256 l 1,4,-1
256 0 m 1,8,-1
 256 128 l 1,9,-1
 128 128 l 1,10,-1
 128 256 l 1,11,-1
 256 256 l 1,12,-1
 256 384 l 1,13,-1
 128 384 l 1,14,-1
 128 512 l 1,15,-1
 384 512 l 1,16,-1
 384 0 l 1,17,-1
 256 0 l 1,8,-1
EndSplineSet
EndChar

StartChar: h
Encoding: 104 104 55
Width: 512
Flags: W
LayerCount: 2
Fore
SplineSet
256 0 m 1,0,-1
 256 384 l 1,1,-1
 384 384 l 1,2,-1
 384 0 l 1,3,-1
 256 0 l 1,0,-1
0 0 m 1,4,-1
 0 640 l 1,5,-1
 128 640 l 1,6,-1
 128 512 l 1,7,-1
 256 512 l 1,8,-1
 256 384 l 1,9,-1
 128 384 l 1,10,-1
 128 0 l 1,11,-1
 0 0 l 1,4,-1
EndSplineSet
EndChar

StartChar: i
Encoding: 105 105 56
Width: 256
Flags: W
LayerCount: 2
Fore
SplineSet
0 0 m 1,0,-1
 0 384 l 1,1,-1
 128 384 l 1,2,-1
 128 0 l 1,3,-1
 0 0 l 1,0,-1
0 512 m 1,4,-1
 0 640 l 1,5,-1
 128 640 l 1,6,-1
 128 512 l 1,7,-1
 0 512 l 1,4,-1
EndSplineSet
EndChar

StartChar: j
Encoding: 106 106 57
Width: 384
Flags: W
LayerCount: 2
Fore
SplineSet
0 -128 m 1,0,-1
 0 0 l 1,1,-1
 128 0 l 1,2,-1
 128 384 l 1,3,-1
 256 384 l 1,4,-1
 256 -128 l 1,5,-1
 0 -128 l 1,0,-1
128 512 m 1,6,-1
 128 640 l 1,7,-1
 256 640 l 1,8,-1
 256 512 l 1,9,-1
 128 512 l 1,6,-1
EndSplineSet
EndChar

StartChar: k
Encoding: 107 107 58
Width: 512
Flags: W
LayerCount: 2
Fore
SplineSet
256 0 m 1,0,-1
 256 256 l 1,1,-1
 384 256 l 1,2,-1
 384 0 l 1,3,-1
 256 0 l 1,0,-1
256 384 m 1,4,-1
 256 512 l 1,5,-1
 384 512 l 1,6,-1
 384 384 l 1,7,-1
 256 384 l 1,4,-1
0 0 m 1,8,-1
 0 640 l 1,9,-1
 128 640 l 1,10,-1
 128 384 l 1,11,-1
 256 384 l 1,12,-1
 256 256 l 1,13,-1
 128 256 l 1,14,-1
 128 0 l 1,15,-1
 0 0 l 1,8,-1
EndSplineSet
EndChar

StartChar: l
Encoding: 108 108 59
Width: 256
Flags: W
LayerCount: 2
Fore
SplineSet
0 0 m 1,0,-1
 0 640 l 1,1,-1
 128 640 l 1,2,-1
 128 0 l 1,3,-1
 0 0 l 1,0,-1
EndSplineSet
EndChar

StartChar: m
Encoding: 109 109 60
Width: 768
Flags: W
LayerCount: 2
Fore
SplineSet
256 0 m 1,0,-1
 256 384 l 1,1,-1
 384 384 l 1,2,-1
 384 0 l 1,3,-1
 256 0 l 1,0,-1
512 0 m 1,4,-1
 512 384 l 1,5,-1
 640 384 l 1,6,-1
 640 0 l 1,7,-1
 512 0 l 1,4,-1
0 0 m 1,8,-1
 0 512 l 1,9,-1
 256 512 l 1,10,-1
 256 384 l 1,11,-1
 128 384 l 1,12,-1
 128 0 l 1,13,-1
 0 0 l 1,8,-1
384 384 m 1,14,-1
 384 512 l 1,15,-1
 512 512 l 1,16,-1
 512 384 l 1,17,-1
 384 384 l 1,14,-1
EndSplineSet
EndChar

StartChar: n
Encoding: 110 110 61
Width: 512
Flags: W
LayerCount: 2
Fore
SplineSet
256 0 m 1,0,-1
 256 384 l 1,1,-1
 384 384 l 1,2,-1
 384 0 l 1,3,-1
 256 0 l 1,0,-1
0 0 m 1,4,-1
 0 512 l 1,5,-1
 256 512 l 1,6,-1
 256 384 l 1,7,-1
 128 384 l 1,8,-1
 128 0 l 1,9,-1
 0 0 l 1,4,-1
EndSplineSet
EndChar

StartChar: o
Encoding: 111 111 62
Width: 512
Flags: W
LayerCount: 2
Fore
SplineSet
128 0 m 1,0,-1
 128 128 l 1,1,-1
 256 128 l 1,2,-1
 256 0 l 1,3,-1
 128 0 l 1,0,-1
0 128 m 1,4,-1
 0 384 l 1,5,-1
 128 384 l 1,6,-1
 128 128 l 1,7,-1
 0 128 l 1,4,-1
256 128 m 1,8,-1
 256 384 l 1,9,-1
 384 384 l 1,10,-1
 384 128 l 1,11,-1
 256 128 l 1,8,-1
128 384 m 1,12,-1
 128 512 l 1,13,-1
 256 512 l 1,14,-1
 256 384 l 1,15,-1
 128 384 l 1,12,-1
EndSplineSet
EndChar

StartChar: p
Encoding: 112 112 63
Width: 512
Flags: W
LayerCount: 2
Fore
SplineSet
256 256 m 1,0,-1
 256 384 l 1,1,-1
 384 384 l 1,2,-1
 384 256 l 1,3,-1
 256 256 l 1,0,-1
0 0 m 1,4,-1
 0 512 l 1,5,-1
 256 512 l 1,6,-1
 256 384 l 1,7,-1
 128 384 l 1,8,-1
 128 256 l 1,9,-1
 256 256 l 1,10,-1
 256 128 l 1,11,-1
 128 128 l 1,12,-1
 128 0 l 1,13,-1
 0 0 l 1,4,-1
EndSplineSet
EndChar

StartChar: q
Encoding: 113 113 64
Width: 512
Flags: W
LayerCount: 2
Fore
SplineSet
0 128 m 1,0,-1
 0 384 l 1,1,-1
 128 384 l 1,2,-1
 128 128 l 1,3,-1
 0 128 l 1,0,-1
256 -128 m 1,4,-1
 256 0 l 1,5,-1
 128 0 l 1,6,-1
 128 128 l 1,7,-1
 256 128 l 1,8,-1
 256 384 l 1,9,-1
 128 384 l 1,10,-1
 128 512 l 1,11,-1
 384 512 l 1,12,-1
 384 -128 l 1,13,-1
 256 -128 l 1,4,-1
EndSplineSet
EndChar

StartChar: r
Encoding: 114 114 65
Width: 512
Flags: W
LayerCount: 2
Fore
SplineSet
0 0 m 1,0,-1
 0 512 l 1,1,-1
 128 512 l 1,2,-1
 128 384 l 1,3,-1
 256 384 l 1,4,-1
 256 256 l 1,5,-1
 128 256 l 1,6,-1
 128 0 l 1,7,-1
 0 0 l 1,0,-1
256 384 m 1,8,-1
 256 512 l 1,9,-1
 384 512 l 1,10,-1
 384 384 l 1,11,-1
 256 384 l 1,8,-1
EndSplineSet
EndChar

StartChar: s
Encoding: 115 115 66
Width: 512
Flags: W
LayerCount: 2
Fore
SplineSet
0 0 m 1,0,-1
 0 128 l 1,1,-1
 256 128 l 1,2,-1
 256 0 l 1,3,-1
 0 0 l 1,0,-1
256 128 m 1,4,-1
 256 256 l 1,5,-1
 384 256 l 1,6,-1
 384 128 l 1,7,-1
 256 128 l 1,4,-1
0 256 m 1,8,-1
 0 384 l 1,9,-1
 128 384 l 1,10,-1
 128 256 l 1,11,-1
 0 256 l 1,8,-1
128 384 m 1,12,-1
 128 512 l 1,13,-1
 384 512 l 1,14,-1
 384 384 l 1,15,-1
 128 384 l 1,12,-1
EndSplineSet
EndChar

StartChar: t
Encoding: 116 116 67
Width: 384
Flags: W
LayerCount: 2
Fore
SplineSet
128 -128 m 1,0,-1
 128 0 l 1,1,-1
 256 0 l 1,2,-1
 256 -128 l 1,3,-1
 128 -128 l 1,0,-1
0 0 m 1,4,-1
 0 640 l 1,5,-1
 128 640 l 1,6,-1
 128 512 l 1,7,-1
 256 512 l 1,8,-1
 256 384 l 1,9,-1
 128 384 l 1,10,-1
 128 0 l 1,11,-1
 0 0 l 1,4,-1
EndSplineSet
EndChar

StartChar: u
Encoding: 117 117 68
Width: 512
Flags: W
LayerCount: 2
Fore
SplineSet
0 0 m 1,0,-1
 0 512 l 1,1,-1
 128 512 l 1,2,-1
 128 128 l 1,3,-1
 256 128 l 1,4,-1
 256 512 l 1,5,-1
 384 512 l 1,6,-1
 384 0 l 1,7,-1
 0 0 l 1,0,-1
EndSplineSet
EndChar

StartChar: v
Encoding: 118 118 69
Width: 512
Flags: W
LayerCount: 2
Fore
SplineSet
128 0 m 1,0,-1
 128 128 l 1,1,-1
 256 128 l 1,2,-1
 256 0 l 1,3,-1
 128 0 l 1,0,-1
0 128 m 1,4,-1
 0 512 l 1,5,-1
 128 512 l 1,6,-1
 128 128 l 1,7,-1
 0 128 l 1,4,-1
256 128 m 1,8,-1
 256 512 l 1,9,-1
 384 512 l 1,10,-1
 384 128 l 1,11,-1
 256 128 l 1,8,-1
EndSplineSet
EndChar

StartChar: w
Encoding: 119 119 70
Width: 768
Flags: W
LayerCount: 2
Fore
SplineSet
128 0 m 1,0,-1
 128 128 l 1,1,-1
 256 128 l 1,2,-1
 256 0 l 1,3,-1
 128 0 l 1,0,-1
384 0 m 1,4,-1
 384 128 l 1,5,-1
 512 128 l 1,6,-1
 512 0 l 1,7,-1
 384 0 l 1,4,-1
256 128 m 1,8,-1
 256 384 l 1,9,-1
 384 384 l 1,10,-1
 384 128 l 1,11,-1
 256 128 l 1,8,-1
0 128 m 1,12,-1
 0 512 l 1,13,-1
 128 512 l 1,14,-1
 128 128 l 1,15,-1
 0 128 l 1,12,-1
512 128 m 1,16,-1
 512 512 l 1,17,-1
 640 512 l 1,18,-1
 640 128 l 1,19,-1
 512 128 l 1,16,-1
EndSplineSet
EndChar

StartChar: x
Encoding: 120 120 71
Width: 512
Flags: W
LayerCount: 2
Fore
SplineSet
0 0 m 1,0,-1
 0 128 l 1,1,-1
 128 128 l 1,2,-1
 128 0 l 1,3,-1
 0 0 l 1,0,-1
256 0 m 1,4,-1
 256 128 l 1,5,-1
 384 128 l 1,6,-1
 384 0 l 1,7,-1
 256 0 l 1,4,-1
128 128 m 1,8,-1
 128 384 l 1,9,-1
 256 384 l 1,10,-1
 256 128 l 1,11,-1
 128 128 l 1,8,-1
0 384 m 1,12,-1
 0 512 l 1,13,-1
 128 512 l 1,14,-1
 128 384 l 1,15,-1
 0 384 l 1,12,-1
256 384 m 1,16,-1
 256 512 l 1,17,-1
 384 512 l 1,18,-1
 384 384 l 1,19,-1
 256 384 l 1,16,-1
EndSplineSet
EndChar

StartChar: y
Encoding: 121 121 72
Width: 512
Flags: W
LayerCount: 2
Fore
SplineSet
128 -128 m 1,0,-1
 128 0 l 1,1,-1
 256 0 l 1,2,-1
 256 -128 l 1,3,-1
 128 -128 l 1,0,-1
0 256 m 1,4,-1
 0 512 l 1,5,-1
 128 512 l 1,6,-1
 128 256 l 1,7,-1
 0 256 l 1,4,-1
256 0 m 1,8,-1
 256 128 l 1,9,-1
 128 128 l 1,10,-1
 128 256 l 1,11,-1
 256 256 l 1,12,-1
 256 512 l 1,13,-1
 384 512 l 1,14,-1
 384 0 l 1,15,-1
 256 0 l 1,8,-1
EndSplineSet
EndChar

StartChar: z
Encoding: 122 122 73
Width: 512
Flags: W
LayerCount: 2
Fore
SplineSet
0 0 m 1,0,-1
 0 256 l 1,1,-1
 128 256 l 1,2,-1
 128 128 l 1,3,-1
 384 128 l 1,4,-1
 384 0 l 1,5,-1
 0 0 l 1,0,-1
256 256 m 1,6,-1
 256 384 l 1,7,-1
 0 384 l 1,8,-1
 0 512 l 1,9,-1
 384 512 l 1,10,-1
 384 256 l 1,11,-1
 256 256 l 1,6,-1
EndSplineSet
EndChar

StartChar: dollar
Encoding: 36 36 74
Width: 512
Flags: W
LayerCount: 2
Fore
SplineSet
131 639 m 1,0,-1
 131 756 l 1,1,-1
 259 756 l 1,2,-1
 259 639 l 1,3,-1
 131 639 l 1,0,-1
128 -117 m 5,4,-1
 128 0 l 5,5,-1
 256 0 l 5,6,-1
 256 -117 l 5,7,-1
 128 -117 l 5,4,-1
0 0 m 1,8,-1
 0 128 l 1,9,-1
 256 128 l 1,10,-1
 256 0 l 1,11,-1
 0 0 l 1,8,-1
256 128 m 1,12,-1
 256 256 l 1,13,-1
 384 256 l 1,14,-1
 384 128 l 1,15,-1
 256 128 l 1,12,-1
128 256 m 1,16,-1
 128 384 l 1,17,-1
 256 384 l 1,18,-1
 256 256 l 1,19,-1
 128 256 l 1,16,-1
0 384 m 1,20,-1
 0 512 l 1,21,-1
 128 512 l 1,22,-1
 128 384 l 1,23,-1
 0 384 l 1,20,-1
128 512 m 1,24,-1
 128 640 l 1,25,-1
 384 640 l 1,26,-1
 384 512 l 1,27,-1
 128 512 l 1,24,-1
EndSplineSet
EndChar
